<svg id="visual" viewBox="0 0 900 600" width="900" height="600" xmlns="http://www.w3.org/2000/svg" xmlns:xlink="http://www.w3.org/1999/xlink" version="1.1"><rect x="0" y="0" width="900" height="600" fill="#001220"></rect><path d="M0 272L18.8 281.5C37.7 291 75.3 310 112.8 324.5C150.3 339 187.7 349 225.2 356C262.7 363 300.3 367 337.8 357.8C375.3 348.7 412.7 326.3 450.2 322C487.7 317.7 525.3 331.3 562.8 342.2C600.3 353 637.7 361 675.2 368.7C712.7 376.3 750.3 383.7 787.8 374.5C825.3 365.3 862.7 339.7 881.3 326.8L900 314L900 601L881.3 601C862.7 601 825.3 601 787.8 601C750.3 601 712.7 601 675.2 601C637.7 601 600.3 601 562.8 601C525.3 601 487.7 601 450.2 601C412.7 601 375.3 601 337.8 601C300.3 601 262.7 601 225.2 601C187.7 601 150.3 601 112.8 601C75.3 601 37.7 601 18.8 601L0 601Z" fill="#009473"></path><path d="M0 355L18.8 350.5C37.7 346 75.3 337 112.8 344.8C150.3 352.7 187.7 377.3 225.2 395.8C262.7 414.3 300.3 426.7 337.8 418.5C375.3 410.3 412.7 381.7 450.2 373.5C487.7 365.3 525.3 377.7 562.8 390.7C600.3 403.7 637.7 417.3 675.2 407.2C712.7 397 750.3 363 787.8 361.7C825.3 360.3 862.7 391.7 881.3 407.3L900 423L900 601L881.3 601C862.7 601 825.3 601 787.8 601C750.3 601 712.7 601 675.2 601C637.7 601 600.3 601 562.8 601C525.3 601 487.7 601 450.2 601C412.7 601 375.3 601 337.8 601C300.3 601 262.7 601 225.2 601C187.7 601 150.3 601 112.8 601C75.3 601 37.7 601 18.8 601L0 601Z" fill="#00a1ab"></path><path d="M0 486L18.8 479.7C37.7 473.3 75.3 460.7 112.8 463.5C150.3 466.3 187.7 484.7 225.2 487C262.7 489.3 300.3 475.7 337.8 468.2C375.3 460.7 412.7 459.3 450.2 460.2C487.7 461 525.3 464 562.8 456.8C600.3 449.7 637.7 432.3 675.2 424.2C712.7 416 750.3 417 787.8 414.5C825.3 412 862.7 406 881.3 403L900 400L900 601L881.3 601C862.7 601 825.3 601 787.8 601C750.3 601 712.7 601 675.2 601C637.7 601 600.3 601 562.8 601C525.3 601 487.7 601 450.2 601C412.7 601 375.3 601 337.8 601C300.3 601 262.7 601 225.2 601C187.7 601 150.3 601 112.8 601C75.3 601 37.7 601 18.8 601L0 601Z" fill="#00a9d5"></path><path d="M0 509L18.8 503.3C37.7 497.7 75.3 486.3 112.8 488.2C150.3 490 187.7 505 225.2 507.5C262.7 510 300.3 500 337.8 502.3C375.3 504.7 412.7 519.3 450.2 518.2C487.7 517 525.3 500 562.8 493.8C600.3 487.7 637.7 492.3 675.2 500.3C712.7 508.3 750.3 519.7 787.8 527C825.3 534.3 862.7 537.7 881.3 539.3L900 541L900 601L881.3 601C862.7 601 825.3 601 787.8 601C750.3 601 712.7 601 675.2 601C637.7 601 600.3 601 562.8 601C525.3 601 487.7 601 450.2 601C412.7 601 375.3 601 337.8 601C300.3 601 262.7 601 225.2 601C187.7 601 150.3 601 112.8 601C75.3 601 37.7 601 18.8 601L0 601Z" fill="#4facf7"></path></svg>